<svg width="388" height="673" viewBox="0 0 388 673" fill="none" xmlns="http://www.w3.org/2000/svg">
<path d="M216.7 369.2C216.4 373.2 216 377.2 215.6 381.1C215.5 382.1 215.1 382.5 214.1 382.4C213.1 382.2 212.9 382.7 212.9 383.6C213.2 394.9 213.4 406.2 213.6 417.5C213.7 424.6 213.9 431.6 214 438.7C214.2 451 214.5 463.2 214.7 475.5C214.9 483.1 215 490.8 215.2 498.4C215.5 510.7 215.7 523 216 535.3C216.1 542.4 216.3 549.4 216.4 556.5C216.6 567.9 216.8 579.3 217.1 590.8C217.1 591.9 217 592.5 215.7 592.2C215.5 592.2 215.3 592.2 215.1 592.2C212.6 592.1 212.6 592.1 212.5 594.6C212.2 600.1 212.4 605.5 213.1 611C213.2 611.7 213.4 611.8 214.1 611.8C216.3 611.8 218.5 611.6 220.7 611.2C221.6 611.1 221.9 611.2 221.7 612.2C221.6 612.6 221.8 613.1 221.9 613.6C222.6 616 223.4 618.3 224.5 620.5C224.9 621.3 225.2 621.5 226 621C226.8 620.5 227.8 620.1 228.6 619.6C229 619.4 229.3 619.3 229.5 619.7C229.7 620.1 229.4 620.4 229.1 620.5C228.1 621 227.2 621.5 226.2 622C225.7 622.3 225.5 622.5 225.9 623.1C227 624.9 228.2 626.6 229.6 628.3C230 628.8 230.3 628.7 230.6 628.3C231 627.9 231.5 627.5 231.9 627.1C232.2 626.8 232.4 626.8 232.7 627C233 627.3 232.8 627.6 232.6 627.8C232.2 628.2 231.9 628.6 231.5 628.9C230.8 629.4 230.8 629.7 231.4 630.3C235.3 634.2 239.7 637.2 244.8 639.3C247.1 640.2 249.4 641.1 251.5 642.4C254.7 644.4 257 647 257.4 650.9C257.4 651.3 257.6 651.5 258 651.5C258.4 651.5 258.6 651.7 258.6 652.1C258.6 652.4 258.3 652.5 258 652.6C257.7 652.7 257.3 652.6 257.2 653.1C256.2 657.2 253 658.6 249.3 659.1C245 659.7 240.8 659.3 236.5 659.3C232 659.2 227.6 659.1 223.1 658.7C215 658 207 656.6 199.3 653.7C198.5 653.4 197.7 653 196.9 652.6C195.5 651.9 194.7 650.6 194.5 649.1C194.3 647.8 194.2 646.5 194.3 645.2C194.3 644.6 194.6 644 193.8 643.7C193.5 643.6 193.5 643.1 193.8 643C194.7 642.7 194.5 641.9 194.5 641.3C194.8 630.9 195.6 620.6 196.9 610.2C197.1 608.6 197.2 608.5 198.7 609.1C199.7 609.5 200.9 610.3 201.7 609.9C202.5 609.5 202.1 608 202.2 607C202.6 602.1 203 597.2 203.5 592.3C203.5 591.8 203.4 591.6 202.9 591.6C202.7 591.6 202.5 591.6 202.3 591.6C200.1 591.4 200.2 591.4 200 589.3C199.4 580.9 198.8 572.6 198.2 564.2C197.6 556.2 197 548.1 196.4 540.1C195.8 531.7 195.2 523.2 194.5 514.8C193.9 506.8 193.3 498.7 192.8 490.7C192.2 482.3 191.6 474 191 465.6C190.4 457.4 189.8 449.3 189.2 441.1C188.6 432.9 188 424.7 187.4 416.5C187.2 413.5 186.9 410.5 186.8 407.5C186.8 406.7 186.6 406.3 185.6 406.4C182.2 406.7 178.7 406.7 175.3 406.7C174.6 406.7 174.5 406.9 174.5 407.5C174.1 412.6 173.7 417.7 173.4 422.8C172.8 431 172.2 439.3 171.6 447.5C171 455.8 170.4 464.2 169.8 472.5C169.2 480.7 168.6 489 168 497.2C167.4 505.4 166.8 513.7 166.2 521.9C165.6 530 165 538.1 164.4 546.2C163.8 554.5 163.2 562.8 162.6 571.1C162.1 578.1 161.6 585.1 161.1 592.1C161 593 160.7 593.4 159.7 593.4C158.9 593.4 157.9 593.2 157.4 593.7C156.9 594.2 157.4 595.2 157.5 596C158 601.1 158.5 606.1 159 611.1C159.1 611.8 159.3 612 160 611.7C160.9 611.4 161.8 611.1 162.7 610.7C163.6 610.3 164.1 610.4 164.2 611.5C164.5 614.6 164.9 617.6 165.2 620.7C166 628.4 166.4 636.1 166.6 643.8C166.6 644 166.6 644.2 166.6 644.3C168.1 644.9 167.1 645.3 166.7 646C166.4 646.5 166.6 647.4 166.7 648.1C167 652.2 165.9 654 162 655.4C154.3 658.2 146.3 659.8 138.1 660.5C131.3 661 124.5 661.4 117.7 661.3C115 661.3 112.3 661.3 109.6 660.5C106.7 659.7 104.5 658.1 103.7 655C103.6 654.5 103.3 654.5 102.9 654.4C102.6 654.4 102.3 654.3 102.3 653.9C102.3 653.6 102.5 653.3 102.8 653.4C103.4 653.5 103.5 653.1 103.5 652.7C103.9 649 106.1 646.4 109.1 644.4C111.3 642.9 113.8 642 116.2 641.1C121.3 639.1 125.7 636.1 129.5 632.2C130.1 631.5 130 631.2 129.4 630.7C129 630.4 128.6 630 128.2 629.7C128 629.5 127.7 629.2 128 628.9C128.3 628.6 128.6 628.7 128.8 628.9C129 629.1 129.2 629.2 129.3 629.4C130.8 630.7 130.8 630.7 132 629.1C133 627.8 133.9 626.4 134.7 625C135.1 624.4 135 624.1 134.4 623.8C133.4 623.4 132.5 622.8 131.5 622.3C131.2 622.1 130.8 621.9 131.1 621.5C131.3 621.1 131.7 621.2 132 621.4C133 621.9 133.9 622.4 134.8 622.9C135.4 623.3 135.7 623.1 136 622.5C137.2 619.9 138.1 617.3 138.9 614.5C139.1 614 138.2 613.1 139.3 612.9C139.9 612.8 140.5 613.1 141.1 613.1C142.6 613.3 144.1 613.4 145.6 613.5C146 613.5 146.3 613.5 146.4 612.9C147.3 606.9 148.2 600.8 147.9 594.7C147.9 593.9 147.6 593.7 146.8 593.8C146 593.9 145.2 593.9 144.4 593.9C143.7 594 143.4 593.7 143.4 593C143.5 586.7 143.6 580.5 143.8 574.2C143.9 570.8 143.9 567.3 144 563.9C144.2 550.9 144.5 537.9 144.7 524.9C144.9 516.7 145 508.4 145.2 500.2C145.4 487.1 145.7 474.1 145.9 461C146 453.2 146.2 445.4 146.4 437.6C146.6 424.7 146.9 411.8 147.1 398.9C147.2 393.7 147.3 388.5 147.5 383.3C147.5 382.5 147.1 382.5 146.6 382.5C145.3 382.6 144 382.6 142.8 382.7C142.6 382.7 142.5 382.6 142.3 382.5C142.1 380.6 142.3 378.7 142.2 376.8C142.2 376.7 142.2 376.6 142.1 376.6C142 376.6 142 376.6 141.9 376.7C138.6 387.1 135.2 397.5 132 407.9C130.9 411.4 129.3 414.7 128.8 418.3C127.9 424.9 129.1 431 133 436.5C134.3 438.4 135.8 440.1 136.5 442.3C137.2 444.5 137.1 446.6 135.5 448.5C133.8 450.5 131.5 450.6 129.6 448.8C128.7 447.9 128.2 446.9 127.7 445.8C126.6 443.1 125.5 440.4 124.7 437.3C124.2 439.3 123.7 441 123.2 442.7C122.2 446.4 121 449.9 119.8 453.5C119.4 454.7 118.9 455.9 118 456.9C117.4 457.6 116.7 458.1 115.8 458.3C113.4 458.9 111.9 457.2 112.2 454.3C112.7 449.8 113.2 445.3 113.7 440.8C113.7 440.6 113.7 440.4 113.7 439.9C112.4 441.8 111.3 443.4 110.1 445.1C108.6 447.2 107.1 449.3 105.4 451.3C104.7 452.2 103.8 453 102.7 453.5C101.8 454 100.8 454.3 99.9 453.6C98.9 452.9 98.7 451.8 98.9 450.7C99.1 449.2 99.6 447.8 100.1 446.3C101.2 443.2 102.8 440.3 104.8 437.6C102.9 438.4 101 439.2 99 439.3C98.7 439.3 98.4 439.4 98 439.4C95 439.5 94.1 438 95.3 435.3C96.2 433.1 97.9 431.7 99.9 430.6C101.9 429.5 104 428.9 106.1 428.1C110.5 426.4 114.2 423.9 117.1 420.1C118.3 418.4 119.1 416.6 119.6 414.6C119.8 413.8 119.8 413.4 118.7 413.3C116.4 413 116.5 413 116.9 410.7C118.5 401.1 120 391.5 121.6 381.9C123.1 372.9 124.5 363.9 126 354.8C127.5 345.7 129 336.5 130.5 327.4C132.2 316.8 134 306.2 135.7 295.6C137.3 285.6 139 275.5 140.6 265.5C141.5 259.8 142.4 254 145 248.8C148.5 241.5 154.1 236.6 162.3 235.1C163.3 234.9 164.4 234.9 165.4 234.9C166 234.9 166.1 234.7 165.9 234.2C165.8 233.8 165.7 233.3 165.6 232.9C165.5 232.5 165.6 232.2 165.9 232.1C166.3 232 166.6 232.3 166.6 232.7V232.8C166.8 233.4 166.6 234.4 167.3 234.6C168.2 234.8 169.1 234.4 170 234.1C170.3 234 170.4 233.7 170.5 233.4C171.9 228.3 173.1 223.2 173.1 217.9C173.1 210.5 170.2 204.7 163.8 200.7C161.4 199.2 158.9 197.9 156.2 197C143.6 192.9 133.1 185.6 124.3 175.7C123.6 175 123.3 174.5 122.2 175.3C120.2 176.8 116.5 176.1 114.3 174C113 172.8 112.1 171.3 111.4 169.6C109.7 165.1 107.1 161.2 103.9 157.6C99.3 152.6 97.1 146.6 97.5 139.7C97.7 136.8 98.3 134 99.6 131.4C100 130.6 99.9 130.3 99.1 129.9C93.6 127 88.2 123.9 83.6 119.6C78.9 115.3 75.8 110.2 74.8 103.8C73.6 95.3 78.8 87.5 87.1 85.9C88.8 85.6 90.4 85.7 92.1 86C86.4 76.8 85.4 67.4 92.6 58.8C98.9 51.2 107.4 49.8 116.7 52.3C116.4 50.8 116 49.4 116 47.9C116 41.8 118.7 36.9 123.1 32.9C127.5 28.9 132.9 27 138.8 26.8C146.3 26.5 153.5 28.4 160.4 30.8C162.9 31.7 164.7 31.6 166.9 29.9C172.9 25.3 179.7 22.4 187.3 21.5C195 20.6 201.8 22.9 207.6 27.9C214.1 33.5 217.9 40.6 219.1 49.1C219.2 49.5 219.2 49.9 219.3 50.3C227.3 42.4 238.6 42.1 245.1 46.2C255.5 52.8 257.2 62.4 253.7 73.5C264 71.8 272.9 75.9 277.6 84.7C279.8 88.7 280.3 92.9 279.3 97.3C278.5 100.6 279 103.7 280.6 106.7C282.1 109.4 283.3 112.2 283.8 115.3C283.8 115.3 283.9 115.4 284 115.4C284 115.6 284 115.7 284 115.9C283.8 116.9 283.8 117.8 284 118.8C284 119.1 284 119.4 284 119.8C283.6 120 283.7 120.4 283.6 120.7C282.3 125.9 279.4 129.7 274.5 132.1C274 132.4 273.7 132.5 274 133.2C277.8 142.4 274.5 151.1 265.4 155.8C262.7 157.2 260 158.3 257.2 159.4C250.9 161.7 245.9 165.7 242 171C240 173.6 238.1 176.3 236.3 179C229.8 188.8 220.6 194.8 209.4 197.9C207.8 198.3 206.2 198.8 204.6 199.2C197.6 201.1 193.4 205.7 191.7 212.7C190.5 217.6 191.3 222.5 192.3 227.4C192.6 228.6 192.9 229.9 193.2 231.1C193.3 231.6 193.4 232.1 193.9 232.4C194.3 232 194.5 231.5 194.8 231.1C195.1 230.7 195.2 229.9 195.9 230.4C196.6 230.8 195.9 231.3 195.7 231.7C195.4 232.3 195 232.9 194.6 233.6C196 233.7 197.4 233.8 198.7 234C205.2 235.3 209.7 239.4 213.1 244.8C216 249.4 217.4 254.6 218.3 259.9C220.5 273.2 222.7 286.6 224.8 300C226.8 312.5 228.9 325 230.9 337.5C232.8 349 234.6 360.6 236.5 372.1C238.4 383.6 240.3 395.2 242.2 406.7C242.4 408.1 242.6 409.5 242.9 410.8C243 411.2 243.1 411.7 242.7 411.7C241.5 411.9 242 412.6 242.1 413.3C242.7 416.3 244.3 418.7 246.5 420.7C249.3 423.2 252.6 424.9 256.1 426.1C258.3 426.9 260.5 427.6 262.4 428.9C264.2 430.1 265.8 431.6 266.1 434C266.3 436.2 265.2 437.3 263 437.1C261 436.9 259.2 436.2 257.4 435.4C257.1 435.2 256.8 434.9 256.2 435.1C257.8 437.1 259.1 439.3 260.2 441.6C261.2 443.7 261.9 445.9 262.4 448.2C262.6 449.4 262.5 450.5 261.5 451.2C260.5 451.9 259.4 451.6 258.5 451.1C257.4 450.5 256.5 449.7 255.7 448.7C253 445.3 250.6 441.7 248.1 438.2C247.4 438.1 247.8 438.5 247.8 438.7C248.3 442.9 248.7 447 249.2 451.2C249.3 452 249.3 452.9 249.1 453.7C248.6 455.6 247.3 456.4 245.4 455.8C243.7 455.3 242.7 453.9 242.1 452.4C240.6 448.5 239.4 444.4 238.2 440.3C237.7 438.6 237.3 436.9 236.7 434.8C235.8 437.7 234.9 440.2 233.9 442.7C233.5 443.7 233 444.7 232.3 445.6C230.3 448.3 227 448.1 225.3 445.2C224.2 443.2 224.3 441.2 225.1 439.2C225.8 437.4 227 435.9 228.1 434.3C232.4 428.4 233.8 421.8 232.4 414.6C232.2 413.8 232 413.3 231 413.6C230.1 413.9 229.8 413.3 229.5 412.5C225.3 399 221.1 385.5 217 371.9C216.7 370.8 216.3 369.8 216 368.7C217 369 216.9 368.6 216.7 369.2Z" fill="#432918"/>
<path d="M285.1 119.3C284.7 118.3 284.7 117.4 285.1 116.4C285.1 117.4 285.1 118.4 285.1 119.3Z" fill="#575755"/>
<path d="M142.6 376.9C142.7 376.7 142.8 376.4 142.9 376.2H143C143 378.4 143 380.5 143 382.7C142.5 381.2 142.9 379.6 142.8 378.1C142.8 377.7 142.9 377.2 142.6 376.9Z" fill="#848483"/>
<path d="M216.7 369.2C216.7 368.9 216.7 368.7 216.7 368.3C217 368.6 217.1 368.9 217.1 369.2C217 369.2 216.9 369.2 216.7 369.2Z" fill="#AFAFAE"/>
<path d="M248.8 439.1C248.6 438.8 248.5 438.4 248.7 438.1C248.8 438 249 438.3 249.1 438.6C248.9 438.6 248.9 438.9 248.8 439.1Z" fill="#B1B1B0"/>
<path d="M233.3 114.6C234.4 116 235.4 117.5 236.5 118.9C236.7 119.2 237 119.8 237.5 119.3C238 118.9 237.5 118.5 237.3 118.2C236.3 116.9 235.3 115.5 234.3 114.2C232.9 112.4 232.3 110.4 232.1 108.2C231.9 106.2 231.5 104.3 231.2 102.3C231.1 101.9 231.1 101.4 230.6 101.5C230.1 101.6 230.1 102 230.2 102.4C230.5 104.1 230.8 105.9 231 107.6C231.1 107.8 231.2 108.1 230.7 108.1C229.4 105.5 228.2 102.9 227.3 100.2C227 99.3 226.6 99.2 225.7 99.4C214.4 102.4 203.7 95.6 201.6 84C201.5 83.7 201.5 83.5 201.5 83.2C201.5 82.9 201.3 82.7 201 82.7C200.6 82.7 200.5 83 200.5 83.4C200.9 87.9 198.2 90.5 194.7 92.5C189.1 95.7 182.9 96.8 176.5 96C161.8 94.1 152.5 85.7 148.1 71.8C148 71.4 148 70.8 147.4 70.9C146.7 71.1 147 71.7 147.1 72.1C148.3 76.3 150.2 80.2 152.8 83.7C153.2 84.2 153.3 84.6 153 85.2C150.3 90.9 146.5 95.5 140.4 97.9C139.5 98.2 139.7 98.7 139.9 99.4C141.9 105.6 140.5 110.9 135.8 115.4C135.4 115.8 134.9 116.1 134.2 116.7C134.4 114.7 134.5 112.9 134.8 111.2C135.2 108.4 135.7 105.6 136.1 102.8C136.2 102.4 136.4 101.7 135.8 101.6C135.1 101.4 135.2 102.2 135.1 102.6C133.8 110.1 132.9 117.6 132.8 125.2C132.8 126.2 132.8 127.3 132.8 128.6C131.8 127.5 131 126.6 130.2 125.9C127.9 123.8 125.3 122.2 122 122.8C118.9 123.4 116.4 126 115.8 129.5C115.1 133.3 116.4 136.5 119.7 138.6C123.1 140.7 126.7 141.5 130.7 140.9C131.1 140.8 131.6 140.7 132 140.5C133.3 140 133.3 140 133.4 141.5C134.7 154.1 137.2 166.4 142.1 178.1C144.9 184.9 148.9 190.8 154.9 195.3C155 195.4 155.1 195.5 155.2 195.6C154.8 195.9 154.5 195.6 154.2 195.5C145.4 192.1 137.8 187.1 130.9 180.6C128.8 178.6 126.8 176.5 125 174.3C124.6 173.8 124.2 173.5 123.7 174.2C122.3 175.9 120.6 176 118.7 175.4C116.9 174.8 115.6 173.7 114.6 172.1C113.7 170.7 113 169.1 112.5 167.6C111.3 164.3 109.4 161.5 106.9 159C102.4 154.4 99.8 148.9 99.6 142.4C99.5 138.8 100.2 135.3 101.8 132.1C102.3 131 102.2 130.5 101.1 129.9C95.7 127.1 90.3 124.1 85.8 120C81.3 116 78.2 111.2 77.1 105.2C75.7 97.7 79.4 90.7 86.1 88.2C88.9 87.1 91.8 87.1 94.6 88.3C95 88.5 95.4 88.8 95.8 88.3C96.1 87.8 95.6 87.5 95.3 87.2C89 80 88 69.5 93 62C96.8 56.2 102.5 53.4 109.3 52.9C112.4 52.7 115.3 53.2 118.2 54.4C118.5 54.5 118.9 54.9 119.3 54.5C119.6 54.2 119.4 53.8 119.2 53.5C117.1 48.5 117.9 43.8 120.7 39.4C125.2 32.3 131.9 28.9 140.2 28.6C146.9 28.3 153.3 30.1 159.6 32.1C161 32.5 162.4 32.9 163.7 33.5C165 34 165.8 33.9 166.9 33C171.7 29 177.2 26.1 183.2 24.5C188 23.2 192.8 22.8 197.6 24.1C205.5 26.2 211 31.2 215.1 38.1C217.6 42.4 219 47.2 219.4 52.2C219.4 52.6 219.2 53.1 219.7 53.2C220.2 53.4 220.5 52.9 220.7 52.6C227.7 44.6 240.3 43.3 248.4 49.9C255.3 55.5 257.5 66.4 253.4 74.6C253.3 74.8 253.2 75 253.1 75.1C252.9 75.4 252.8 75.7 253 76C253.3 76.3 253.6 76.2 253.9 76.1C255.6 75.5 257.3 75.2 259 75.1C269.5 74.7 280.3 83.9 279.8 95.2C279.7 96.7 279.5 98.2 279.2 99.7C278.8 102.6 279.1 105.4 280.6 108.1C281.3 109.5 282 110.9 282.7 112.3C286.4 119.7 282.1 129.3 274.7 132.4C273.3 133 273.3 133 274 134.4C277.5 141.7 275.1 150.1 268.1 154.7C265.1 156.7 261.8 158 258.5 159.2C251 161.8 245.3 166.6 240.9 172.9C238.5 176.3 236 179.7 233.5 183.1C228.6 189.7 221.9 193.8 214.3 196.4C212.2 197.2 210 197.8 207.8 198.5C207.4 198.6 207.1 198.6 206.6 198.5C217.5 192.8 222.9 183.1 226.6 172.2C230 162.1 232.1 151.6 233 141C233.1 140 233.5 139.9 234.2 139.9C236.6 140.1 239 140.4 241.4 140.5C245.3 140.7 248.4 138.9 249.8 135.5C251.4 131.9 250.9 128.4 248.3 125.4C246.1 122.9 242.7 122.3 239.5 123.7C237.1 124.8 235.3 126.6 233.5 128.9C233.5 124.4 233.2 120.2 233 116C233 115.2 232.6 114.7 233.3 114.6Z" fill="#635D58"/>
<path d="M217.2 349.8C216.9 336.9 215.9 325.1 214.5 313.4C213.1 301.6 211.3 289.9 209.3 278.2C208.6 274.1 208 270 207.3 265.9C206.8 263.1 205.3 260.7 204.5 258C204.4 257.6 204.2 257.5 203.8 257.6C203.4 257.7 203.4 258.1 203.5 258.4C203.9 259.4 204.1 260.5 204.6 261.4C206.4 264.9 206.7 268.7 207.4 272.5C208.9 281.6 210.4 290.6 211.7 299.7C212.9 308.2 213.9 316.7 214.7 325.2C215.7 336.3 216.3 347.4 216.1 358.5C216 365.5 215.6 372.5 214.9 379.4C214.7 381.1 214.3 381.4 212.7 381.4C204.7 381.4 196.8 380.6 188.9 380.8C176.6 381 164.4 381.3 152.1 381.6C149.7 381.7 147.4 381.7 145 381.8C144.2 381.8 144 381.6 144 380.8C144 371.9 144.4 363 144.9 354.1C145.4 345.2 146.2 336.3 147.2 327.4C148.4 316.8 149.9 306.2 151.8 295.6C154.2 282 157.2 268.4 160.8 255.1C160.8 254.9 160.9 254.8 160.9 254.6C161 254.2 161 253.8 160.5 253.7C160 253.6 159.9 254 159.8 254.3C159.2 256.7 158.5 259.2 157.9 261.6C154.1 277 150.9 292.5 148.6 308.2C146.2 323.8 144.6 339.5 143.7 355.3C143.4 360.6 143.1 366 143 371.3C143 373.3 142.1 375 141.5 376.8C137.6 388.9 133.7 401 129.9 413.1C129.6 413.9 129.4 414.2 128.5 414C125.4 413.5 122.3 413 119.3 412.6C118.7 412.5 118.6 412.4 118.7 411.8C120.2 402.4 121.8 393 123.3 383.7C125 373.1 126.7 362.5 128.5 351.9C130.1 341.9 131.8 331.9 133.4 321.9C135.3 310.2 137.2 298.4 139 286.7C140.6 276.4 142 266.1 144.5 255.9C145.7 251.2 147.5 246.7 151 243.1C155.2 238.8 160.3 236.2 166.4 236.3C166.9 236.3 167.4 236.3 167.7 236.9C171 243.1 179.7 246.1 187.4 241.8C190.1 240.3 192.3 238.3 194.2 236C194.6 235.4 195.1 235.2 195.8 235.2C203.7 235.3 209.4 239.2 213.5 245.7C216.3 250.3 217.6 255.6 218.5 260.8C220.9 275.2 223.2 289.6 225.5 303.9C227.8 317.9 230.1 331.9 232.4 345.9C234.4 358.4 236.5 371 238.5 383.5C240 392.4 241.4 401.4 242.9 410.3C243 411 243 411.2 242.2 411.3C239.2 411.7 236.2 412.2 233.2 412.7C232.4 412.8 232 412.7 231.7 411.8C226.9 396.3 222.1 380.9 217.3 365.4C216.9 364.3 217.2 363.1 217.3 362C217.3 357.6 217.1 353.2 217.2 349.8Z" fill="#6600CC"/>
<path d="M201.1 86.8C202.4 90.5 204.2 93.6 207 96C212.2 100.5 218.1 102 224.8 100.7C225.8 100.5 226.3 100.5 226.7 101.7C227.7 104.7 229.1 107.6 230.8 110.3C231.6 111.6 231.8 112.9 231.9 114.3C232.9 124.7 232.8 135 231.5 145.4C231.4 146.3 230.9 146.3 230.3 146.5C224.3 148.5 220.1 152.4 218.5 158.7C216.9 165.1 218.7 170.6 223.2 175.3C223.8 175.9 223.8 176.3 223.5 177C221 182.8 217.8 188.1 213.1 192.4C210.5 194.7 207.4 196.4 204.4 198.2C201.8 199.7 199.2 201.3 197 203.4C192.9 207.3 191.3 212.2 191.1 217.6C190.9 222.6 192 227.4 193.3 232.1C193.5 232.9 193.3 233.2 192.7 233.6C189.1 235.9 185.4 238 181 238.6C177.9 239 175.1 238.2 172.7 236C172.2 235.6 172.1 235.1 172.3 234.4C173.8 229 175.1 223.6 175.1 217.9C175 210.7 172.3 205 166.2 201C163 198.9 159.6 197 156.4 194.8C150.4 190.8 146.5 185 143.5 178.6C143.1 177.8 143.6 177.6 144 177.2C147.5 173.7 149.3 169.5 149.1 164.5C148.8 157.4 143.5 150.9 136.3 148.9C135.5 148.7 135.2 148.4 135.1 147.6C133.7 138 133.4 128.3 134 118.5C134 118 134.2 117.7 134.7 117.4C140.5 113.6 143.1 106.4 141.2 99.7C141.1 99.2 140.7 98.8 141.5 98.5C147.3 96 151.1 91.5 153.7 85.9C153.8 85.7 153.9 85.5 154 85.3C155.8 87.3 157.7 89.3 160 90.8C170.7 98.1 182 99.2 193.8 94.1C197 92.7 199.6 90.4 201.1 86.8Z" fill="#FFE0DC"/>
<path d="M180.2 405.7C179 405.7 177.4 405.6 175.8 405.7C174.9 405.7 174.7 405.5 174.9 404.6C175 404.1 175.2 403.5 174.4 403.5C173.8 403.5 173.8 404.1 173.8 404.5C173.9 405.5 173.4 405.7 172.5 405.6C171.2 405.5 169.9 405.4 168.7 405.4C168.3 405.4 167.7 405.1 167.7 405.8C167.7 406.5 168.2 406.4 168.6 406.4C170 406.5 171.3 406.6 172.7 406.5C173.4 406.5 173.6 406.7 173.6 407.4C173.3 411.4 173 415.4 172.7 419.5C172.1 427.8 171.5 436.2 170.9 444.5C170.2 453.9 169.5 463.4 168.8 472.8C168.2 481 167.6 489.2 167 497.4C166.4 505.7 165.8 514 165.2 522.3C164.6 530.4 164 538.6 163.4 546.7C162.7 556.1 162 565.5 161.4 574.9C161.1 579.8 160.5 584.7 160.5 589.6C160.5 591.9 159.8 592.5 157.5 592.5C154.4 592.4 151.4 592.5 148.3 592.9C148.1 592.9 148 592.9 147.8 593C145.5 593.2 145 592.8 145.2 590.5C145.6 583 145.6 575.4 145.7 567.8C145.9 555.3 146.2 542.8 146.4 530.3C146.6 521.9 146.7 513.5 146.9 505.1C147.1 492.2 147.4 479.4 147.6 466.5C147.8 458.1 147.9 449.7 148.1 441.3C148.3 432 148.5 422.6 148.7 413.3C148.8 406.3 149 399.2 149.1 392.2C149.2 389.2 149.3 386.3 149.3 383.3C149.3 382.5 149.6 382.4 150.3 382.4C155.6 382.3 160.8 382.2 166.1 382.1C174.4 381.9 182.6 381.8 190.9 381.7C197.7 381.6 204.4 382.2 211.1 382.2C211.9 382.2 211.9 382.5 211.9 383.1C212 387.4 212.1 391.7 212.2 396C212.5 408.7 212.7 421.4 213 434.1C213.1 441.1 213.3 448.2 213.4 455.2C213.7 467.8 213.9 480.4 214.2 493C214.3 500 214.5 507 214.6 514C214.9 526.7 215.1 539.3 215.4 552C215.5 559.2 215.7 566.5 215.8 573.7C215.9 579.1 216 584.4 216.2 589.8C216.2 590.8 215.8 591.1 214.9 591.1C210.8 590.9 206.7 590.8 202.6 590.6C201.7 590.6 201.3 590.2 201.2 589.2C200.7 582.2 200.2 575.2 199.7 568.2C199.1 560 198.5 551.7 197.9 543.5C197.3 535.3 196.7 527.1 196.1 518.9C195.4 509.4 194.7 499.9 194 490.3C193.3 481 192.7 471.7 192 462.5C191.3 453.2 190.6 443.9 189.9 434.5C189.3 426.3 188.7 418.1 188.1 409.9C188 409 188 408.1 187.9 407.2C187.8 406.5 188.1 406.3 188.7 406.2C190.7 406 192.7 405.8 194.7 405.6C195.1 405.6 195.6 405.5 196 405.4C196.4 405.4 196.6 405.2 196.6 404.8C196.6 404.3 196.2 404.4 195.9 404.4C194.1 404.6 192.2 404.8 190.4 405C190.3 405 190.2 405 190 405C187.8 405.3 187.8 405.3 187.6 403C187.6 402.8 187.6 402.5 187.5 402.3C187.4 402 187.3 401.7 186.9 401.7C186.5 401.7 186.4 402.1 186.4 402.4C186.4 403.1 186.5 403.8 186.6 404.4C186.7 405 186.5 405.3 185.9 405.3C184.2 405.4 182.4 405.6 180.2 405.7Z" fill="#6787A5"/>
<path d="M241 653.1C225.8 653 211.1 650.1 197.1 644.1C196.2 643.7 195.8 643.3 195.8 642.1C196 631.8 196.8 621.5 198 611.3C198.1 610.3 198.4 610.2 199.3 610.5C205.7 612.7 212.3 613.5 219 612.6C220.2 612.4 220.8 612.5 221.1 613.9C221.6 616.5 222.6 618.9 223.8 621.3C224.1 622 224 622.2 223.4 622.5C222.1 623.1 220.8 623.9 219.5 624.5C219.2 624.7 218.7 624.9 218.9 625.4C219.2 626 219.6 625.7 220 625.5C221.3 624.8 222.7 624.1 224 623.4C224.5 623.1 224.7 623.1 225 623.7C226.1 625.7 227.4 627.5 228.8 629.2C229.2 629.6 229.2 629.9 228.7 630.2C227.6 631.2 226.4 632.2 225.4 633.3C225.1 633.6 224.3 633.9 224.8 634.5C225.4 635.1 225.8 634.4 226.1 634C227.2 633 228.3 632.1 229.3 631.1C229.8 630.6 230 630.6 230.5 631.1C234.5 635.4 239.4 638.4 244.8 640.7C247.6 641.8 250.4 643 252.8 644.9C254.7 646.5 256 648.5 256.4 650.9C256.6 651.7 256.4 652.1 255.4 652.2C250.7 652.7 245.9 653.1 241 653.1Z" fill="#6600CC"/>
<path d="M131.4 632.2C132.7 633.4 134.1 634.6 135.4 635.8C135.7 636.1 136.1 636.6 136.6 636.1C137.1 635.5 136.4 635.3 136.1 635C135 634 133.9 632.9 132.7 631.9C132.2 631.5 132.1 631.2 132.6 630.7C134 629.1 135.2 627.3 136.3 625.4C136.6 624.8 136.9 624.8 137.5 625.1C138.7 625.8 139.9 626.4 141.1 627C141.5 627.2 142.1 627.9 142.5 627.1C142.9 626.4 142 626.3 141.6 626.1C140.4 625.4 139.2 624.8 138 624.2C137.4 623.9 137.2 623.7 137.6 623C138.9 620.5 139.9 617.8 140.5 615C140.7 614.2 141 614.1 141.7 614.2C147.5 615.1 153.2 614.7 158.8 613.2C160 612.9 161.1 612.6 162.2 612.1C162.9 611.8 163.2 611.8 163.3 612.7C164 618.6 164.6 624.4 165 630.3C165.3 634.8 165.5 639.4 165.6 643.9C165.6 644.8 165.3 645.1 164.6 645.5C152.2 650.8 139.2 653.8 125.8 654.5C119 654.8 112.3 654.5 105.6 653.6C104.9 653.5 104.7 653.2 104.8 652.6C105 650.9 105.8 649.4 106.9 648.1C108.8 645.9 111.1 644.4 113.8 643.2C115.8 642.3 117.9 641.4 119.9 640.5C124.3 638.7 128.1 635.9 131.4 632.2Z" fill="#6600CC"/>
<path d="M113.9 454C114.3 450.9 114.7 447.8 115 444.7C115.2 442.8 115.5 440.8 115.6 438.9C115.6 438.5 115.9 438 115.3 437.8C114.7 437.6 114.6 438.2 114.3 438.5C111.8 442 109.3 445.5 106.8 449C105.9 450.3 105 451.6 103.7 452.6C103 453.1 102.2 453.6 101.3 453C100.5 452.4 100.7 451.5 100.9 450.7C102.4 444.3 105.6 438.9 110.6 434.6C111 434.2 111.5 433.9 111.9 433.5C112.1 433.3 112.3 433 112.1 432.8C111.9 432.5 111.5 432.5 111.3 432.7C110.8 433.1 110.3 433.5 109.8 433.9C106.7 436.3 103.4 438.2 99.5 438.9C99 439 98.6 439 98.1 438.9C97 438.6 96.6 437.9 96.9 436.8C97.5 435.1 98.7 433.8 100.2 432.8C101.7 431.8 103.4 431.3 105.1 430.7C109.8 429 114.1 426.7 117.5 423C119.6 420.7 121.1 418.1 121.5 415C121.6 414.4 121.8 414.1 122.5 414.2C124.4 414.5 126.3 414.8 128.2 415.1C128.9 415.2 129.1 415.3 129 416.1C127.1 424.5 128.8 432.2 134 439.2C135.2 440.8 136.4 442.5 136.5 444.7C136.6 445.8 136.4 446.8 135.9 447.7C134.9 449.6 132.8 450 131.2 448.5C130.1 447.5 129.5 446.1 129 444.7C127.9 441.8 126.9 438.9 126.1 435.8C126 435.4 126 434.8 125.4 434.8C124.7 434.8 124.8 435.5 124.7 435.9C123.4 441.4 121.9 446.9 120.1 452.2C119.7 453.3 119.2 454.4 118.7 455.5C118.4 456.2 117.9 456.9 117.2 457.3C116 458.1 114.9 457.7 114.4 456.4C114 455.6 113.9 454.8 113.9 454Z" fill="#FFE0DC"/>
<path d="M235.1 419.8C235.1 418.7 235 416.7 234.5 414.7C234.3 414 234.4 413.6 235.3 413.6C237.2 413.4 239.1 413 241 412.8C241.4 412.7 241.8 412.6 242 413.3C242.8 418.6 246.2 422 250.5 424.7C253.1 426.3 255.9 427.5 258.8 428.6C260.6 429.2 262.3 429.9 263.8 431.1C264.9 431.9 265.8 433 266.1 434.4C266.4 435.8 265.6 436.7 264.2 436.6C261.9 436.5 259.9 435.5 257.9 434.5C255.9 433.4 254.1 432.1 252.3 430.8C251.9 430.5 251.5 430 251.1 430.6C250.7 431.1 251.3 431.4 251.7 431.7C257 436.1 260.6 441.6 262.2 448.3C262.4 449.2 262.7 450.3 261.7 450.9C260.7 451.5 259.9 450.8 259.1 450.2C257.9 449.3 257.1 448 256.2 446.8C253.7 443.3 251.2 439.8 248.7 436.3C248.4 435.9 248.2 435.4 247.6 435.6C247.1 435.9 247.4 436.4 247.4 436.8C247.9 441.2 248.3 445.6 249 450C249.2 451.1 249.2 452.2 249.1 453.2C249.1 454 248.8 454.8 248 455.2C247.2 455.6 246.4 455.2 245.8 454.7C245.1 454.2 244.7 453.4 244.3 452.7C242.6 449.3 241.8 445.6 240.7 442.1C239.9 439.3 239.1 436.5 238.5 433.6C238.4 433.2 238.5 432.6 237.9 432.6C237.2 432.6 237.3 433.2 237.2 433.6C236.4 436.9 235.2 440 234 443.1C233.5 444.4 232.8 445.6 231.7 446.4C230.1 447.6 228.5 447.3 227.6 445.5C226.6 443.6 226.4 441.7 227.4 439.8C227.9 438.8 228.5 437.9 229.2 437C232.8 432 234.9 426.7 235.1 419.8Z" fill="#FFE0DC"/>
<path d="M256.5 653.1C256 655.3 254.6 656.4 252.9 657.2C250.3 658.4 247.5 658.6 244.7 658.6C235.7 658.6 226.7 658.4 217.8 657.2C211.8 656.4 206.1 655 200.3 653.2C199.7 653 199.1 652.7 198.5 652.5C196.7 651.7 195.7 650.4 195.7 648.4C195.7 647.2 195.3 645.7 195.9 645C196.5 644.3 197.8 645.5 198.8 645.9C214 652 229.8 654.7 246.2 654C249.6 653.9 252.9 653.6 256.5 653.1Z" fill="#EAD5BB"/>
<path d="M165.8 646.3C165.8 647.5 165.8 648.5 165.8 649.5C165.9 651.7 164.9 653.2 162.8 654C158.2 655.8 153.4 657.2 148.6 658.1C141.2 659.5 133.6 660 126.1 660.1C122.1 660.2 118.1 660.4 114.1 660.2C112.3 660.1 110.4 659.9 108.8 659.1C107 658.2 105.7 656.8 105.1 654.8C126 657.6 146.2 654.8 165.8 646.3Z" fill="#EAD5BB"/>
<path d="M132.7 134.5C130.3 134 128 133.4 125.7 132.9C125.3 132.8 124.9 132.7 124.5 132.6C124.1 132.5 123.8 132.5 123.6 133C123.5 133.5 123.9 133.6 124.2 133.7C126.3 134.2 128.4 134.7 130.5 135.2C130.7 135.2 130.8 135.3 131 135.3C132.1 135.5 133.1 135.6 132.9 137.2C132.8 138.4 132.5 139.1 131 139.5C128.1 140.4 125.2 139.7 122.4 138.7C120.4 138 118.6 136.8 117.5 134.9C114.7 130.4 117.8 123.9 122.9 123.6C124.7 123.5 126.3 124.2 127.8 125.2C129.6 126.5 131 128.2 132.3 130C132.8 130.7 132.6 131.4 132.6 132.1C132.7 132.9 132.7 133.7 132.7 134.5Z" fill="#FFE0DC"/>
<path d="M233.4 134.4C233.4 133.8 233.6 133.2 233.5 132.6C233.1 129.5 235.4 127.9 237.2 126.2C239 124.5 241.1 123.4 243.7 123.7C246.4 124 248.8 126.3 249.4 129.4C250.5 134.6 247 139 241.6 139C239 139 236.4 138.3 233.7 138.4C233.2 138.4 233.2 138.2 233.2 137.8C233.2 136.7 233.2 135.6 233.2 134.5C233.3 134.4 233.3 134.4 233.4 134.4Z" fill="#FFE0DC"/>
<path d="M135.3 149.7C141.5 151.6 145.8 155.3 147.5 161.5C149.1 167.4 147 172.4 142.7 176.9C139.1 168.1 136.9 159.1 135.3 149.7Z" fill="#FFC4C0"/>
<path d="M224.3 174.8C220.1 170.5 218.1 165.5 219.2 159.7C220.5 153.2 224.8 149.3 231.1 147.2C229.8 156.7 227.6 165.8 224.3 174.8Z" fill="#FFC4C0"/>
<path d="M150.2 613.5C148.1 613.6 148.1 613.6 148.5 611.4C149 608.4 149.4 605.4 149.6 602.4C149.6 602.1 149.5 601.5 150 601.5C150.5 601.5 150.2 602.1 150.3 602.4C150.3 602.6 150.3 602.8 150.3 603C150.3 603.4 150.3 603.8 150.8 603.8C151.3 603.8 151.3 603.4 151.4 603.1C151.4 602.8 151.4 602.5 151.4 602.1C151.4 601.8 151.4 601.5 151.8 601.5C152.2 601.5 152.3 601.7 152.4 602.1C152.4 602.5 152.5 602.9 152.5 603.3C152.5 603.7 152.7 604 153.2 604C153.6 604 153.6 603.6 153.6 603.3C153.6 603.1 153.5 602.8 153.5 602.6C153.5 602.2 153.2 601.6 154 601.6C154.5 601.6 155.1 601.5 155.1 602.4C155.1 602.8 155.2 603.3 155.4 603.7C155.5 604 155.7 604.2 156 604.1C156.4 604 156.5 603.8 156.4 603.4C156.3 603.1 156.2 602.7 156.2 602.4C156.1 602.1 155.8 601.7 156.5 601.6C157 601.5 157.2 601.6 157.2 602.2C157.4 604.5 157.7 606.8 157.9 609.1C157.9 609.3 157.9 609.5 157.9 609.7C158.2 612.5 158.2 612.6 155.4 613.1C153.7 613.3 151.9 613.5 150.2 613.5Z" fill="#EFA14D"/>
<path d="M211.2 611.9C208.6 611.7 206.3 611.4 204 610.8C203.4 610.7 203.2 610.4 203.3 609.8C203.6 606.7 203.8 603.7 204.1 600.6C204.1 600.3 204.1 600 204.5 600C204.9 600 204.8 600.4 204.8 600.6C204.8 600.8 204.8 601 204.8 601.2C204.8 601.6 204.8 602 205.3 601.9C205.8 601.9 205.7 601.5 205.8 601.1C205.9 600.7 205.5 600.1 206.1 599.8C206.8 599.5 207.3 599.9 207.4 600.7C207.4 601.1 207.2 601.8 207.9 601.8C208.7 601.8 208.5 601.1 208.5 600.6C208.5 600.2 208.3 599.6 209.1 599.6C210 599.6 209.7 600.2 209.7 600.6C209.7 600.8 209.7 601 209.7 601.2C209.7 601.6 209.7 602 210.2 602C210.8 602 210.8 601.6 210.8 601.2C210.8 600.8 210.8 600.5 210.8 600.1C210.8 599.8 210.9 599.6 211.2 599.6C211.5 599.6 211.4 599.9 211.4 600.1C211.5 601.3 211.5 602.6 211.6 603.8C211.6 606 211.8 608.2 212.2 610.3C212.4 611.8 212.1 612.1 211.2 611.9Z" fill="#EFA14D"/>
<path d="M168.5 236.2C170.1 235.3 171.2 236 172.4 237.1C175.4 239.9 179.1 240.1 182.9 239.2C186.5 238.4 189.7 236.7 192.8 234.7C193.1 234.5 193.3 234.3 193.6 234.2C193.7 234.2 193.7 234.2 193.8 234.2C194 234.4 193.9 234.6 193.8 234.7C190.6 238.8 186.8 241.9 181.5 242.6C176.4 243.2 172.2 241.4 169.1 237.2C168.8 236.9 168.6 236.6 168.5 236.2Z" fill="#FEFEFE"/>
<path d="M207.6 598.9C206.8 598.9 205.9 598.8 205.1 598.9C204.4 599 204.2 598.9 204.3 598.1C204.5 596.2 204.7 594.3 204.8 592.4C204.8 591.9 205.1 591.8 205.5 591.8C207.4 591.9 209.4 592 211.3 592C211.9 592 211.8 592.3 211.8 592.7C211.7 594.4 211.6 596.2 211.6 597.9C211.6 598.5 211.3 598.6 210.9 598.6C209.7 598.8 208.6 598.8 207.6 598.9Z" fill="#FFE0DC"/>
<path d="M153.3 600.4C152.1 600.5 150.7 601 149.9 600.3C149.2 599.7 149.8 598.2 149.7 597.1C149.7 596.3 149.7 595.4 149.6 594.6C149.5 594 149.6 593.8 150.2 593.8C152 593.8 153.7 593.7 155.5 593.6C156 593.6 156.3 593.6 156.4 594.3C156.5 596.1 156.7 597.8 156.9 599.5C157 600.3 156.7 600.5 156 600.4C155.2 600.4 154.2 600.4 153.3 600.4Z" fill="#FFE0DC"/>
<path d="M185.3 272.7C185 272.6 184.4 273 184.3 272.3C184.2 271.6 184.8 271.6 185.3 271.6C191.2 271.1 197.1 270.5 203 270C203.4 270 203.9 269.8 203.9 270.4C203.9 270.9 203.5 271 203.1 271C197.2 271.6 191.3 272.1 185.3 272.7Z" fill="#432918"/>
<path d="M152.3 166.2C152.6 165.4 153.1 165.7 153.5 166C156.7 167.7 160.1 168.9 163.7 169.8C168.5 170.9 173.5 171.4 178.4 171.6C184.5 171.8 190.5 172 196.6 171.3C203.5 170.5 209.8 168.4 214.7 163.2C215 162.9 215.2 162.6 215.6 162.9C216 163.3 215.7 163.6 215.5 163.9C212.6 167 209.1 169.1 205.1 170.5C200.7 172 196.2 172.6 191.6 172.7C184.9 172.9 178.3 172.9 171.6 172.2C165.2 171.6 159 170.2 153.3 167.1C152.8 166.8 152.3 166.7 152.3 166.2Z" fill="#432918"/>
<path d="M177.5 160.1C178.3 160.7 178.9 160.7 179.6 160.4C179.9 160.3 180.3 160.2 180.4 160.6C180.6 161 180.3 161.2 179.9 161.4C178.6 162 176.6 161.3 175.9 160.1C175.6 159.7 175.6 159.3 176.2 159.2C179.9 158.6 180.4 155.6 180.7 152.8C181.1 148.1 180.8 143.3 180.6 138.5C180.4 132.4 179.9 126.3 178.8 120.3C178.6 119 178.3 117.8 178.1 116.5C178 116.1 177.8 115.6 178.5 115.5C179.1 115.4 179.1 115.9 179.1 116.3C179.9 120.1 180.5 123.9 180.9 127.8C181.7 135.4 181.8 143.1 181.9 150.8C181.9 152 181.8 153.2 181.6 154.4C181.2 156.8 180.3 159.1 177.5 160.1Z" fill="#432918"/>
<path d="M213.6 119.8C213.6 122.5 211.8 124.3 209.2 124.4C206.4 124.4 204 121.7 204.1 118.4C204.1 115.7 206 113.6 208.4 113.6C211.2 113.6 213.6 116.4 213.6 119.8Z" fill="#432918"/>
<path d="M166.1 118.9C166 121.1 165.2 123 163.1 124.1C160.3 125.6 157 123.9 156.6 120.7C156.3 118.3 157.6 115.6 159.6 114.5C161 113.7 162.4 113.6 163.8 114.4C165.6 115.5 166.2 117 166.1 118.9Z" fill="#432918"/>
<path d="M164.8 102.8C164.5 103.5 164.1 103.3 163.7 103C161.6 101.8 159.3 101.3 156.8 101.5C153.6 101.8 151 103.2 149 105.6C148.8 105.8 148.7 106.1 148.5 106.3C148.3 106.5 148 106.5 147.7 106.3C147.5 106.1 147.5 105.9 147.6 105.6C147.7 105.4 147.8 105.3 147.9 105.1C151.5 100.4 158.7 98.9 163.9 101.8C164.3 102.1 164.8 102.3 164.8 102.8Z" fill="#432918"/>
<path d="M208.9 100.4C212.5 100.5 215.9 102 218.4 105.1C218.7 105.4 219.2 105.8 218.7 106.3C218.2 106.7 217.9 106.2 217.6 105.8C213.9 101.3 208 100.2 202.9 102.9C202.5 103.1 202 103.6 201.7 103C201.4 102.4 202 102.2 202.4 102C204.3 100.9 206.3 100.4 208.9 100.4Z" fill="#432918"/>
<path d="M208.1 392.2C207.9 392.9 207.4 392.7 206.9 392.5C205 391.7 203.2 390.7 201.5 389.5C199.7 388.3 197.9 386.9 196.3 385.5C196 385.2 195.5 384.9 195.9 384.4C196.3 384 196.7 384.4 197 384.7C200.1 387.6 203.6 389.9 207.4 391.6C207.7 391.7 208 391.8 208.1 392.2Z" fill="#432918"/>
<path d="M164.7 384.8C164.7 385.1 164.4 385.3 164.2 385.5C161.1 388.4 157.6 390.7 153.7 392.5C153.3 392.7 152.8 393.1 152.5 392.5C152.2 391.8 152.9 391.8 153.3 391.6C157.1 389.9 160.5 387.6 163.5 384.8C163.8 384.5 164.1 384.2 164.5 384.4C164.7 384.4 164.7 384.6 164.7 384.8Z" fill="#432918"/>
<path d="M240.7 131C240.7 131.5 240.4 131.6 240.1 131.8C238.4 132.8 236.6 133.7 234.9 134.7C234.5 134.9 234.1 135.1 233.9 134.6C233.6 134.1 234.1 133.9 234.4 133.7C236.1 132.8 237.8 131.8 239.5 130.9C240 130.5 240.4 130.4 240.7 131Z" fill="#432918"/>
</svg>
