<svg width="52" height="52" viewBox="0 0 52 52" fill="none" xmlns="http://www.w3.org/2000/svg">
<g clip-path="url(#clip0_1_3)">
<path d="M5.71534 3.01967C12.9237 3.01704 20.1321 3.01441 27.3405 3.01178C30.9447 3.01046 34.5488 3.00695 38.153 3.00783C40.8414 3.00849 47.2378 2.03717 48.9932 4.76251C50.0771 6.44534 49.063 12.5591 49.0816 14.635C49.114 18.2549 49.1465 21.8748 49.1789 25.4947C49.2113 29.1146 49.2437 32.7345 49.2761 36.3544C49.2909 37.9998 49.3056 39.6452 49.3204 41.2906C49.3472 44.2929 49.767 45.097 47.5596 47.3065C45.4703 49.3978 44.6071 49.0513 41.923 49.0212C39.9829 48.9994 38.0429 48.9776 36.1028 48.9559C32.8694 48.9196 29.636 48.8833 26.4026 48.847C22.8458 48.8071 19.289 48.7672 15.7323 48.7273C14.1156 48.7092 12.4989 48.691 10.8821 48.6729C9.96652 48.6626 5.82281 49.0794 5.06199 48.6076C1.76233 46.5612 2.46883 41.0129 2.45041 37.7495C2.42837 33.8444 2.45413 29.9385 2.45682 26.0334C2.45921 22.5693 0.381639 2.88677 6.19452 3.21027C7.64128 3.29078 7.63673 1.04053 6.19452 0.960268C1.99328 0.726461 0.420993 3.69549 0.232956 7.51934C-0.166037 15.6331 0.208321 23.8604 0.202718 31.9849C0.200155 35.7001 0.129392 39.4259 0.300426 43.1385C0.38865 45.0536 0.137064 48.1972 1.63429 49.7474C2.78091 50.9346 4.53294 50.8186 6.03201 50.8684C10.2298 51.0082 14.4424 50.9628 18.6423 51.0099C26.7259 51.1007 34.8094 51.1914 42.893 51.2821C47.3885 51.3325 50.7706 51.3225 51.4865 46.2001C52.5466 38.6154 51.471 30.1932 51.4024 22.5329C51.367 18.584 51.3316 14.635 51.2963 10.686C51.2757 8.38962 52.0172 4.84411 50.8033 2.75444C49.9902 1.35489 48.6725 1.24359 47.1588 1.05706C42.8924 0.53131 38.5101 0.757703 34.2212 0.759268C24.7192 0.762735 15.2173 0.766203 5.71534 0.76967C4.2676 0.770198 4.26516 3.0202 5.71534 3.01967Z" fill="#6600CC"/>
<path d="M1.4656 15.2654C17.4239 15.2654 33.3823 15.2654 49.3406 15.2654C50.7884 15.2654 50.7908 13.0154 49.3406 13.0154C33.3823 13.0154 17.4239 13.0154 1.4656 13.0154C0.0178275 13.0154 0.0154295 15.2654 1.4656 15.2654Z" fill="#6600CC"/>
<path d="M33.7156 28.4595C34.8148 29.1676 35.914 29.8757 37.0132 30.5837C37.996 31.2168 40.086 32.1289 40.4101 33.3255C40.5824 32.902 40.7547 32.4785 40.9271 32.055C39.6149 32.9262 38.2142 33.7316 36.9898 34.7248C35.5954 35.8558 34.559 36.8185 32.7559 37.2806C31.3542 37.6398 31.9483 39.8104 33.354 39.4502C34.8884 39.057 36.2422 38.3828 37.4464 37.3445C38.9005 36.0907 40.4591 35.0625 42.0627 33.9979C42.4826 33.7191 42.7154 33.2286 42.5797 32.7274C42.1812 31.256 41.1538 30.5904 39.9295 29.7879C38.2456 28.6843 36.5438 27.607 34.8513 26.5167C33.6304 25.7303 32.501 27.6771 33.7156 28.4595Z" fill="#6600CC"/>
<path d="M31.2274 23.1363C27.0743 28.2853 24.331 34.5729 21.2258 40.3798C20.5432 41.6563 22.4848 42.7941 23.1686 41.5154C26.1608 35.9199 28.8146 29.6912 32.8184 24.7273C33.7193 23.6103 32.1369 22.0086 31.2274 23.1363Z" fill="#6600CC"/>
<path d="M17.5566 26.6633C16.5579 28.3793 15.5767 29.6705 13.9486 30.8357C13.1791 31.3864 12.2137 31.9882 12.0277 32.9992C11.8624 33.8972 12.3188 34.4282 12.986 34.919C14.572 36.0855 16.2999 37.0028 17.8482 38.2482C18.9662 39.1474 20.568 37.5651 19.4392 36.6572C18.4712 35.8786 17.4854 35.1248 16.4558 34.4287C15.9877 34.1121 15.4439 33.8558 15.0087 33.5018C14.8109 33.2972 14.5786 33.2551 14.3119 33.3756C14.6386 33.0913 14.9846 32.8341 15.3501 32.604C17.1956 31.2904 18.3609 29.755 19.4994 27.799C20.2292 26.545 18.2854 25.4111 17.5566 26.6633Z" fill="#6600CC"/>
<path d="M5.79156 8.81497C5.77715 8.77091 5.76274 8.72685 5.74832 8.68279C5.84476 8.31794 5.9412 7.95308 6.03764 7.58823C6.20483 7.53787 6.37203 7.48751 6.53922 7.43715C6.70469 7.53359 6.87017 7.63003 7.03564 7.72647C7.05723 7.78628 7.07882 7.84609 7.10041 7.9059C6.90645 7.33035 6.32601 6.95267 5.71653 7.12016C5.15491 7.2745 4.73591 7.92578 4.93079 8.50404C5.32324 9.66856 6.73515 10.1277 7.62863 9.17922C7.8931 8.89848 8.0484 8.46661 7.91795 8.08465C7.80243 7.74639 7.65592 7.4597 7.38255 7.22398C6.92268 6.82743 6.2435 6.77204 5.79156 7.22398C5.38589 7.62966 5.32943 8.41647 5.79156 8.81497Z" fill="#6600CC"/>
<path d="M10.2784 8.078C10.2996 8.52373 10.4387 8.84749 10.7335 9.1863C11.1075 9.61609 11.9543 9.63069 12.3245 9.1863C12.4358 9.05267 12.548 8.92079 12.6284 8.76627C12.8357 8.3683 12.8519 7.71315 12.4525 7.40297C11.7106 6.82678 10.969 6.82679 10.2272 7.40298C9.74697 7.77602 9.83538 8.60212 10.2272 8.99398C10.7013 9.46802 11.3367 9.36799 11.8182 8.99398C11.8489 8.97011 11.8797 8.94624 11.9104 8.92238C11.7449 9.01882 11.5794 9.11526 11.414 9.2117C11.3646 9.18891 11.3152 9.1889 11.2658 9.21169C11.1003 9.11525 10.9348 9.01881 10.7693 8.92237C10.8001 8.94623 10.8308 8.9701 10.8615 8.99396C10.8029 8.53952 10.7443 8.08509 10.6856 7.63066C10.7016 7.61887 10.7175 7.60709 10.7335 7.59531C11.2638 7.59531 11.7941 7.59531 12.3245 7.59531C12.299 7.56599 12.2735 7.53666 12.2479 7.50734C12.3444 7.67282 12.4408 7.83829 12.5373 8.00377C12.5343 8.02851 12.5313 8.05326 12.5284 8.078C12.4994 7.47095 12.032 6.953 11.4034 6.953C10.8165 6.953 10.2493 7.46815 10.2784 8.078Z" fill="#6600CC"/>
<path d="M15.5054 7.63822C15.4804 7.67762 15.4555 7.71703 15.4305 7.75643C15.565 7.6219 15.6996 7.48737 15.8341 7.35283C15.7927 7.37437 15.7513 7.3959 15.71 7.41744C16.0885 7.41744 16.467 7.41744 16.8456 7.41744C16.7623 7.35546 16.6791 7.29348 16.5959 7.23151C16.6718 7.82047 16.7477 8.40944 16.8236 8.99841C16.8633 8.95631 16.9031 8.91422 16.9428 8.87212C16.3027 8.60696 15.6625 8.34179 15.0223 8.07663C15.1393 9.50199 16.6275 9.90507 17.6367 9.00568C18.2319 8.47524 17.9479 7.64504 17.409 7.23878C17.3722 7.21107 17.3354 7.18336 17.2987 7.15565C17.4332 7.29018 17.5678 7.42471 17.7023 7.55925C17.6949 7.56955 17.6875 7.57985 17.6801 7.59015C17.4536 7.02683 16.9297 6.63031 16.2962 6.8044C15.7614 6.9514 15.2824 7.62127 15.5105 8.18829C15.6881 8.62985 15.8883 8.89136 16.2734 9.18159C16.1975 8.59262 16.1216 8.00366 16.0457 7.41469C16.0341 7.4147 16.0225 7.41471 16.0109 7.41471C16.2002 7.36351 16.3895 7.31232 16.5788 7.26112C16.5887 7.26764 16.5987 7.27416 16.6087 7.28067C16.7742 7.37711 16.9396 7.47355 17.1051 7.56999C17.1128 7.58778 17.1205 7.60557 17.1281 7.62335C17.1793 7.81262 17.2305 8.00189 17.2817 8.19116C17.2786 8.15299 17.2755 8.11481 17.2723 8.07663C17.1971 7.15977 16.0675 6.52323 15.3518 7.28113C15.3121 7.32323 15.2723 7.36532 15.2326 7.40742C14.6922 7.97969 14.8751 8.73854 15.4603 9.17432C15.5435 9.23629 15.6267 9.29827 15.71 9.36025C16.034 9.60156 16.5151 9.53225 16.8456 9.36025C17.1178 9.21856 17.2857 9.03035 17.4482 8.77384C18.2256 7.5472 16.2793 6.41712 15.5054 7.63822Z" fill="#6600CC"/>
</g>
<defs>
<clipPath id="clip0_1_3">
<rect width="52" height="52" fill="white"/>
</clipPath>
</defs>
</svg>
